<svg xmlns="http://www.w3.org/2000/svg" xmlns:xlink="http://www.w3.org/1999/xlink" width="260" zoomAndPan="magnify" viewBox="0 0 194.87999 47.25" height="63" preserveAspectRatio="xMidYMid meet" version="1.0"><defs><g/></defs><path fill="#393be5" d="M 59.375 33.648438 L 136.375 33.648438 L 136.375 42.535156 L 59.375 42.535156 L 59.375 33.648438 " fill-opacity="1" fill-rule="nonzero"/><g fill="#ffffff" fill-opacity="1"><g transform="translate(61.805274, 39.707777)"><g><path d="M 0.328125 0 L 0.328125 -3.875 L 0.96875 -3.875 L 0.96875 -1.9375 L 2.90625 -1.9375 L 2.90625 -3.875 L 3.546875 -3.875 L 3.546875 0 L 2.90625 0 L 2.90625 -1.296875 L 0.96875 -1.296875 L 0.96875 0 Z M 0.96875 -3.875 L 0.96875 -4.515625 L 2.90625 -4.515625 L 2.90625 -3.875 Z M 0.96875 -3.875 "/></g></g></g><g fill="#ffffff" fill-opacity="1"><g transform="translate(69.277574, 39.707777)"><g><path d="M 0.96875 -3.875 L 0.96875 -2.578125 L 0.328125 -2.578125 L 0.328125 -3.875 Z M 0.328125 -0.640625 L 0.328125 -1.296875 L 0.96875 -1.296875 L 0.96875 -0.640625 Z M 0.96875 0 L 0.96875 -0.640625 L 2.90625 -0.640625 L 2.90625 0 Z M 0.96875 -1.9375 L 0.96875 -2.578125 L 2.90625 -2.578125 L 2.90625 -1.9375 Z M 0.96875 -3.875 L 0.96875 -4.515625 L 2.90625 -4.515625 L 2.90625 -3.875 Z M 2.90625 -0.640625 L 2.90625 -1.9375 L 3.546875 -1.9375 L 3.546875 -0.640625 Z M 2.90625 -3.21875 L 2.90625 -3.875 L 3.546875 -3.875 L 3.546875 -3.21875 Z M 2.90625 -3.21875 "/></g></g></g><g fill="#ffffff" fill-opacity="1"><g transform="translate(76.749875, 39.707777)"><g><path d="M 0.96875 -3.875 L 0.96875 -2.578125 L 0.328125 -2.578125 L 0.328125 -3.875 Z M 0.328125 -0.640625 L 0.328125 -1.296875 L 0.96875 -1.296875 L 0.96875 -0.640625 Z M 0.96875 0 L 0.96875 -0.640625 L 2.90625 -0.640625 L 2.90625 0 Z M 0.96875 -1.9375 L 0.96875 -2.578125 L 2.90625 -2.578125 L 2.90625 -1.9375 Z M 0.96875 -3.875 L 0.96875 -4.515625 L 2.90625 -4.515625 L 2.90625 -3.875 Z M 2.90625 -0.640625 L 2.90625 -1.9375 L 3.546875 -1.9375 L 3.546875 -0.640625 Z M 2.90625 -3.21875 L 2.90625 -3.875 L 3.546875 -3.875 L 3.546875 -3.21875 Z M 2.90625 -3.21875 "/></g></g></g><g fill="#ffffff" fill-opacity="1"><g transform="translate(84.222176, 39.707777)"><g><path d="M 0.328125 0 L 0.328125 -4.515625 L 0.96875 -4.515625 L 0.96875 0 Z M 0.328125 0 "/></g></g></g><g fill="#ffffff" fill-opacity="1"><g transform="translate(89.111132, 39.707777)"><g><path d="M 0.96875 -3.875 L 0.96875 -2.578125 L 0.328125 -2.578125 L 0.328125 -3.875 Z M 0.328125 -0.640625 L 0.328125 -1.296875 L 0.96875 -1.296875 L 0.96875 -0.640625 Z M 0.96875 0 L 0.96875 -0.640625 L 2.90625 -0.640625 L 2.90625 0 Z M 0.96875 -1.9375 L 0.96875 -2.578125 L 2.90625 -2.578125 L 2.90625 -1.9375 Z M 0.96875 -3.875 L 0.96875 -4.515625 L 2.90625 -4.515625 L 2.90625 -3.875 Z M 2.90625 -0.640625 L 2.90625 -1.9375 L 3.546875 -1.9375 L 3.546875 -0.640625 Z M 2.90625 -3.21875 L 2.90625 -3.875 L 3.546875 -3.875 L 3.546875 -3.21875 Z M 2.90625 -3.21875 "/></g></g></g><g fill="#ffffff" fill-opacity="1"><g transform="translate(96.583431, 39.707777)"><g><path d="M 1.609375 0 L 1.609375 -3.875 L 0.328125 -3.875 L 0.328125 -4.515625 L 3.546875 -4.515625 L 3.546875 -3.875 L 2.265625 -3.875 L 2.265625 0 Z M 1.609375 0 "/></g></g></g><g fill="#ffffff" fill-opacity="1"><g transform="translate(104.055731, 39.707777)"><g><path d="M 0.328125 0 L 0.328125 -3.875 L 0.96875 -3.875 L 0.96875 -1.9375 L 2.90625 -1.9375 L 2.90625 -3.875 L 3.546875 -3.875 L 3.546875 0 L 2.90625 0 L 2.90625 -1.296875 L 0.96875 -1.296875 L 0.96875 0 Z M 0.96875 -3.875 L 0.96875 -4.515625 L 2.90625 -4.515625 L 2.90625 -3.875 Z M 0.96875 -3.875 "/></g></g></g><g fill="#ffffff" fill-opacity="1"><g transform="translate(111.52803, 39.707777)"><g><path d="M 2.90625 0 L 2.90625 -1.9375 L 2.265625 -1.9375 L 2.265625 -2.578125 L 2.90625 -2.578125 L 2.90625 -4.515625 L 3.546875 -4.515625 L 3.546875 0 Z M 0.328125 0 L 0.328125 -4.515625 L 0.96875 -4.515625 L 0.96875 -3.875 L 1.609375 -3.875 L 1.609375 -3.21875 L 0.96875 -3.21875 L 0.96875 0 Z M 1.609375 -2.578125 L 1.609375 -3.21875 L 2.265625 -3.21875 L 2.265625 -2.578125 Z M 1.609375 -2.578125 "/></g></g></g><g fill="#ffffff" fill-opacity="1"><g transform="translate(119.00033, 39.707777)"><g><path d="M 0.328125 -0.640625 L 0.328125 -3.875 L 0.96875 -3.875 L 0.96875 -0.640625 Z M 0.96875 0 L 0.96875 -0.640625 L 2.90625 -0.640625 L 2.90625 0 Z M 0.96875 -3.875 L 0.96875 -4.515625 L 2.90625 -4.515625 L 2.90625 -3.875 Z M 2.90625 -0.640625 L 2.90625 -1.296875 L 3.546875 -1.296875 L 3.546875 -0.640625 Z M 2.90625 -3.21875 L 2.90625 -3.875 L 3.546875 -3.875 L 3.546875 -3.21875 Z M 2.90625 -3.21875 "/></g></g></g><g fill="#ffffff" fill-opacity="1"><g transform="translate(126.472629, 39.707777)"><g><path d="M 0.328125 0 L 0.328125 -4.515625 L 3.546875 -4.515625 L 3.546875 -3.875 L 0.96875 -3.875 L 0.96875 -2.578125 L 2.90625 -2.578125 L 2.90625 -1.9375 L 0.96875 -1.9375 L 0.96875 -0.640625 L 3.546875 -0.640625 L 3.546875 0 Z M 0.328125 0 "/></g></g></g><path stroke-linecap="butt" transform="matrix(0.850667, 0, 0, 0.850667, 34.182662, 2.012774)" fill="none" stroke-linejoin="miter" d="M 41.57694 20.001452 C 41.434589 20.001452 41.347341 19.983084 41.319789 19.946348 C 41.287645 19.909612 41.273869 19.854508 41.273869 19.781037 C 41.273869 19.712157 41.374893 19.574397 41.57694 19.37235 C 41.778988 19.16571 42.008587 18.959071 42.261146 18.752432 C 42.518297 18.5412 42.701977 18.389665 42.816776 18.307009 C 43.106072 18.059042 43.363223 17.751379 43.58823 17.393204 C 43.813238 17.025845 44.019877 16.686038 44.21274 16.364599 C 44.777555 15.377322 45.259713 14.458924 45.659216 13.604815 C 46.058719 12.746113 46.45363 11.896596 46.843949 11.060854 L 45.057666 11.060854 L 45.057666 10.707272 L 47.018444 10.707272 C 47.266411 10.170009 47.528154 9.623563 47.808266 9.067932 C 48.092969 8.50771 48.419 7.915344 48.781767 7.290834 C 49.071062 6.785715 49.378725 6.349476 49.704756 5.982118 C 50.030787 5.610167 50.508354 5.29332 51.128272 5.031576 L 52.3727 4.50809 L 46.995484 4.50809 C 46.618941 4.50809 46.329646 4.581562 46.127599 4.728505 C 45.925551 4.870857 45.700544 5.08668 45.452577 5.375975 L 45.255121 5.27036 C 45.64544 4.714729 45.971471 4.246347 46.233214 3.856028 C 46.494958 3.461117 46.756701 3.148862 47.018444 2.919263 C 47.179164 2.790687 47.358251 2.703439 47.560298 2.662111 C 47.766938 2.616192 47.946025 2.593232 48.106745 2.593232 L 59.921926 2.593232 C 60.358164 2.593232 60.670419 2.657519 60.858691 2.786095 C 61.046962 2.919263 61.138802 3.107534 61.138802 3.355501 C 61.152578 3.759596 60.922979 4.218795 60.44082 4.728505 C 59.963254 5.233624 59.311192 5.798438 58.489226 6.422948 L 58.31473 6.161205 C 58.645353 5.927014 58.911689 5.706598 59.113736 5.495367 C 59.320375 5.288728 59.421399 5.105048 59.421399 4.944329 C 59.421399 4.723913 59.320375 4.595338 59.113736 4.563194 C 58.911689 4.526458 58.622394 4.50809 58.250443 4.50809 L 53.001802 4.50809 C 52.597707 4.797385 52.271676 5.123416 52.032893 5.486183 C 51.79411 5.84895 51.555327 6.230085 51.307359 6.638772 C 50.871121 7.391857 50.494578 8.103615 50.173139 8.764861 C 49.856292 9.421515 49.548628 10.068985 49.259333 10.707272 L 56.39528 10.707272 L 56.39528 11.060854 L 49.084838 11.060854 C 48.781767 11.754244 48.455736 12.46141 48.115929 13.17776 C 47.776122 13.898702 47.376619 14.670156 46.912828 15.496713 C 46.637309 15.988056 46.334238 16.401335 46.003615 16.73655 C 45.677584 17.071765 45.259713 17.374836 44.754595 17.650355 L 43.928037 18.086594 L 53.869688 18.086594 C 54.250823 18.086594 54.540118 18.013122 54.742165 17.87077 C 54.944212 17.723827 55.16922 17.508003 55.417187 17.214116 L 55.614642 17.324324 C 55.219732 17.861586 54.893701 18.329969 54.631957 18.729472 C 54.370214 19.128975 54.113063 19.44123 53.85132 19.675421 C 53.6906 19.803996 53.506921 19.891244 53.304873 19.937164 C 53.102826 19.978492 52.919146 20.001452 52.763019 20.001452 Z M 57.258574 20.001452 C 57.11163 20.001452 57.028974 19.983084 56.99683 19.946348 C 56.969278 19.909612 56.955503 19.854508 56.955503 19.781037 C 56.955503 19.712157 57.051934 19.583581 57.235614 19.404494 C 57.423885 19.220814 57.639708 19.023359 57.8739 18.816719 C 58.117275 18.600896 58.310138 18.430993 58.45249 18.307009 L 67.79259 10.794519 C 69.124266 9.765914 70.419207 8.728125 71.672819 7.685744 C 72.931023 6.638772 74.138715 5.582615 75.300488 4.50809 L 65.698645 4.50809 C 65.326694 4.50809 65.032807 4.581562 64.830759 4.728505 C 64.628712 4.870857 64.403704 5.08668 64.160329 5.375975 L 63.962874 5.27036 C 64.353193 4.714729 64.679224 4.246347 64.940967 3.856028 C 65.20271 3.461117 65.464453 3.148862 65.726196 2.919263 C 65.886916 2.790687 66.066003 2.703439 66.268051 2.662111 C 66.470098 2.616192 66.649186 2.593232 66.809905 2.593232 L 78.322015 2.593232 C 78.441407 2.607008 78.510286 2.629967 78.528654 2.662111 C 78.551614 2.689663 78.560798 2.740175 78.560798 2.809055 C 78.560798 2.955999 78.418447 3.153454 78.12456 3.410605 C 77.835265 3.658572 77.467906 3.95246 77.017891 4.292267 C 75.888262 5.100456 74.538218 6.092325 72.976943 7.25869 C 71.42026 8.429646 69.739593 9.729178 67.944126 11.16647 C 66.258867 12.502738 64.748103 13.760942 63.407243 14.941083 C 62.061791 16.125815 60.941347 17.163604 60.041317 18.059042 L 70.162055 18.086594 C 70.54319 18.086594 70.832485 18.013122 71.034533 17.87077 C 71.23658 17.723827 71.461587 17.508003 71.709555 17.214116 L 71.90701 17.324324 C 71.512099 17.861586 71.186068 18.329969 70.924325 18.729472 C 70.662582 19.128975 70.405431 19.44123 70.143687 19.675421 C 69.982968 19.803996 69.799288 19.891244 69.592649 19.937164 C 69.390602 19.978492 69.211514 20.001452 69.050795 20.001452 Z M 70.198791 20.175947 C 70.024296 20.175947 69.817656 20.166763 69.574281 20.152987 C 69.326314 20.139212 69.101306 20.102476 68.908443 20.04278 C 68.710988 19.987676 68.609964 19.891244 68.609964 19.762669 C 68.609964 19.546845 68.688028 19.335614 68.839563 19.133566 C 68.991099 18.926927 69.17937 18.757024 69.40897 18.619264 C 69.629385 18.481504 69.8498 18.412625 70.065624 18.412625 C 70.460534 18.412625 70.956469 18.476912 71.558019 18.61008 C 72.159569 18.738656 72.834591 18.862639 73.573901 18.972847 C 74.023916 18.816719 74.418827 18.550384 74.758634 18.183025 C 75.098441 17.815666 75.470392 17.26922 75.879078 16.543686 C 76.53114 15.363546 77.091363 14.279837 77.564337 13.278784 C 78.037312 12.277731 78.510286 11.285862 78.983261 10.298585 C 79.451644 9.311308 80.007274 8.259743 80.64556 7.139298 C 80.833832 6.804083 81.031287 6.49642 81.237926 6.216309 C 81.449158 5.931606 81.724677 5.66527 82.0553 5.421895 C 82.395107 5.173928 82.835938 4.935145 83.386976 4.705545 L 84.475277 4.246347 L 84.452317 4.246347 L 78.253135 4.374922 C 77.876592 4.374922 77.582705 4.448394 77.376066 4.595338 C 77.174018 4.737689 76.953603 4.958105 76.705636 5.2474 L 76.512772 5.137192 C 76.898499 4.586154 77.22453 4.140731 77.486274 3.79174 C 77.752609 3.442749 78.014352 3.148862 78.276095 2.919263 C 78.432223 2.790687 78.615902 2.703439 78.81795 2.662111 C 79.019997 2.616192 79.199084 2.593232 79.359804 2.593232 L 86.518711 2.593232 C 86.638102 2.593232 86.706982 2.616192 86.72535 2.662111 C 86.74831 2.703439 86.757494 2.744767 86.757494 2.786095 C 86.757494 2.845791 86.65647 2.978958 86.449831 3.19019 C 86.247784 3.401421 86.018184 3.612653 85.756441 3.833068 C 85.494698 4.048891 85.278874 4.200427 85.104379 4.292267 C 84.613036 4.521866 84.231902 4.838713 83.95179 5.2474 C 83.676271 5.656087 83.414528 6.069365 83.166561 6.487236 C 82.500723 7.644417 81.935908 8.723533 81.472118 9.719994 C 81.008327 10.711863 80.544536 11.717509 80.080746 12.732337 C 80.934855 11.965476 81.798149 11.207798 82.67981 10.468488 C 83.55688 9.729178 84.392621 9.031196 85.191627 8.36995 C 85.98604 7.708704 86.711574 7.125522 87.363636 6.615812 C 88.02029 6.110693 88.552961 5.706598 88.957055 5.403527 C 90.233628 4.503498 91.436728 3.777964 92.575541 3.231518 C 93.714353 2.689663 94.761326 2.414144 95.702683 2.414144 C 95.831259 2.414144 96.001163 2.423328 96.207802 2.441696 C 96.423625 2.455472 96.611897 2.492208 96.777208 2.547312 C 96.94252 2.607008 97.029768 2.698847 97.029768 2.832015 C 97.029768 3.034062 96.94252 3.249886 96.777208 3.479485 C 96.611897 3.6999 96.396073 3.888172 96.13433 4.039707 C 95.877179 4.195835 95.610844 4.269307 95.330733 4.269307 C 94.72459 4.269307 93.787825 4.081035 92.529621 3.6999 C 92.20359 3.833068 91.836231 4.016747 91.422952 4.246347 C 91.014265 4.480538 90.605579 4.723913 90.206076 4.985656 C 89.811165 5.2474 89.466766 5.486183 89.177471 5.702006 C 88.727456 6.023445 88.130498 6.478052 87.391188 7.07501 C 86.651878 7.671969 85.829913 8.337807 84.929883 9.077116 C 85.090603 10.482264 85.278874 11.786388 85.494698 12.980305 C 85.715113 14.178813 85.953896 15.225786 86.211048 16.116631 C 86.472791 17.007477 86.762086 17.700867 87.069749 18.192209 C 87.386596 18.688144 87.712627 18.931519 88.04325 18.931519 C 88.534593 18.931519 89.223391 18.430993 90.109644 17.434532 L 90.307099 17.631987 C 89.448398 18.545792 88.722864 19.197854 88.130498 19.592765 C 87.53354 19.978492 87.069749 20.175947 86.739126 20.175947 C 86.403911 20.175947 86.07788 20.010636 85.761033 19.684605 C 85.439594 19.358574 85.131931 18.825903 84.833452 18.086594 C 84.539565 17.347284 84.259453 16.350823 84.006894 15.09721 C 83.749743 13.839006 83.524736 12.282323 83.322688 10.42716 C 82.711954 10.946055 82.092036 11.478725 81.462934 12.025172 C 80.833832 12.567026 80.213913 13.113472 79.603179 13.669103 C 79.483788 13.930846 79.359804 14.197181 79.222044 14.463516 C 79.084285 14.729852 78.932749 15.000779 78.77203 15.276298 C 78.395487 15.960504 77.858224 16.59879 77.160243 17.195748 C 76.466853 17.788114 75.699991 18.307009 74.864249 18.752432 C 74.0331 19.18867 73.206542 19.537661 72.389169 19.794813 C 71.567203 20.047372 70.837077 20.175947 70.198791 20.175947 Z M 100.505901 20.240235 C 100.097214 20.240235 99.550768 20.235643 98.871154 20.226459 C 98.19154 20.221867 97.479782 20.212683 96.740472 20.194315 L 90.490779 20.001452 C 90.348427 20.001452 90.26118 19.983084 90.229036 19.946348 C 90.201484 19.909612 90.187708 19.854508 90.187708 19.781037 C 90.187708 19.725933 90.270364 19.615725 90.440267 19.459598 C 90.605579 19.298878 90.81681 19.119791 91.069369 18.917743 C 91.32652 18.711104 91.569896 18.513648 91.799495 18.325377 C 91.886743 18.251905 91.973991 18.205985 92.056646 18.183025 C 92.148486 18.160065 92.244918 18.150881 92.345941 18.150881 L 93.47557 18.192209 C 94.086304 17.728419 94.573055 17.145236 94.93123 16.447254 C 95.293997 15.740089 95.610844 14.931899 95.877179 14.018094 C 96.148106 13.104288 96.432809 12.098643 96.726696 10.996567 C 97.025176 9.889898 97.415494 8.714349 97.893061 7.469921 C 98.251236 6.523972 98.751762 5.724966 99.390049 5.082088 C 100.032927 4.43921 100.744684 3.924908 101.525322 3.543773 C 102.310552 3.158046 103.118741 2.877935 103.959075 2.703439 C 104.799408 2.528944 105.598414 2.441696 106.356092 2.441696 C 107.545416 2.441696 108.482182 2.556496 109.170979 2.781503 C 109.859777 3.00651 110.204176 3.217742 110.204176 3.419789 C 110.204176 3.621837 110.121521 3.83766 109.956209 4.062667 C 109.790898 4.287675 109.584258 4.471354 109.345475 4.627482 C 109.106692 4.779017 108.8725 4.852489 108.638309 4.852489 C 108.000023 4.852489 107.315817 4.682585 106.581099 4.333594 C 105.850973 3.984603 104.978496 3.571325 103.963667 3.089166 C 103.688148 3.148862 103.408037 3.245294 103.123333 3.378461 C 102.843222 3.507037 102.549335 3.74582 102.241672 4.094811 C 101.938601 4.43921 101.607978 4.953513 101.249803 5.628535 C 100.89622 6.303557 100.510493 7.203586 100.092622 8.337807 C 99.872207 8.902621 99.638016 9.513355 99.390049 10.179193 C 99.146673 10.835847 98.88493 11.487909 98.609411 12.135379 C 98.333892 12.782849 98.058372 13.3844 97.792037 13.944622 C 97.525702 14.500252 97.259367 14.959451 96.997624 15.317626 C 96.694553 15.753865 96.400665 16.130407 96.115962 16.451846 C 95.835851 16.768694 95.528188 17.067173 95.202157 17.342692 C 94.876126 17.618211 94.481215 17.902914 94.017424 18.192209 L 97.392534 18.307009 C 98.131844 18.320785 98.843602 18.334561 99.523216 18.348337 C 100.207422 18.362113 100.749276 18.371297 101.153371 18.371297 C 101.998297 18.371297 102.650359 18.307009 103.114149 18.183025 C 103.57794 18.059042 103.945299 17.902914 104.211634 17.714643 C 104.482561 17.526371 104.730529 17.3381 104.96472 17.145236 L 105.139215 17.324324 C 104.661649 17.902914 104.275922 18.385073 103.986627 18.761616 C 103.69274 19.138158 103.417221 19.44123 103.155477 19.675421 C 103.059046 19.748893 102.921286 19.831548 102.742199 19.923388 C 102.567703 20.01982 102.310552 20.093292 101.961561 20.148395 C 101.61257 20.208091 101.130411 20.240235 100.505901 20.240235 Z M 100.505901 20.240235 " stroke="#343434" stroke-width="0.680128" stroke-opacity="1" stroke-miterlimit="4"/><g fill="#271b4c" fill-opacity="1"><g transform="translate(69.551789, 19.026109)"><g><path d="M 0 0 C -0.125 0 -0.195312 -0.015625 -0.21875 -0.046875 C -0.25 -0.078125 -0.265625 -0.125 -0.265625 -0.1875 C -0.265625 -0.25 -0.175781 -0.363281 0 -0.53125 C 0.175781 -0.707031 0.367188 -0.882812 0.578125 -1.0625 C 0.796875 -1.238281 0.957031 -1.363281 1.0625 -1.4375 C 1.300781 -1.65625 1.515625 -1.914062 1.703125 -2.21875 C 1.898438 -2.53125 2.078125 -2.820312 2.234375 -3.09375 C 2.722656 -3.925781 3.132812 -4.707031 3.46875 -5.4375 C 3.8125 -6.164062 4.148438 -6.890625 4.484375 -7.609375 L 2.96875 -7.609375 L 2.96875 -7.90625 L 4.625 -7.90625 C 4.832031 -8.363281 5.054688 -8.828125 5.296875 -9.296875 C 5.546875 -9.773438 5.820312 -10.28125 6.125 -10.8125 C 6.375 -11.25 6.632812 -11.625 6.90625 -11.9375 C 7.1875 -12.25 7.59375 -12.515625 8.125 -12.734375 L 9.1875 -13.1875 L 4.609375 -13.1875 C 4.285156 -13.1875 4.035156 -13.125 3.859375 -13 C 3.691406 -12.875 3.503906 -12.6875 3.296875 -12.4375 L 3.125 -12.53125 C 3.457031 -13 3.734375 -13.398438 3.953125 -13.734375 C 4.179688 -14.066406 4.40625 -14.332031 4.625 -14.53125 C 4.757812 -14.644531 4.910156 -14.71875 5.078125 -14.75 C 5.253906 -14.789062 5.410156 -14.8125 5.546875 -14.8125 L 15.609375 -14.8125 C 15.984375 -14.8125 16.25 -14.753906 16.40625 -14.640625 C 16.5625 -14.535156 16.640625 -14.378906 16.640625 -14.171875 C 16.648438 -13.816406 16.453125 -13.421875 16.046875 -12.984375 C 15.640625 -12.554688 15.085938 -12.078125 14.390625 -11.546875 L 14.234375 -11.78125 C 14.523438 -11.976562 14.753906 -12.164062 14.921875 -12.34375 C 15.097656 -12.519531 15.1875 -12.675781 15.1875 -12.8125 C 15.1875 -13 15.097656 -13.109375 14.921875 -13.140625 C 14.753906 -13.171875 14.507812 -13.1875 14.1875 -13.1875 L 9.71875 -13.1875 C 9.375 -12.9375 9.097656 -12.65625 8.890625 -12.34375 C 8.691406 -12.039062 8.488281 -11.71875 8.28125 -11.375 C 7.90625 -10.726562 7.582031 -10.125 7.3125 -9.5625 C 7.039062 -9 6.78125 -8.445312 6.53125 -7.90625 L 12.609375 -7.90625 L 12.609375 -7.609375 L 6.390625 -7.609375 C 6.128906 -7.015625 5.851562 -6.410156 5.5625 -5.796875 C 5.269531 -5.191406 4.925781 -4.535156 4.53125 -3.828125 C 4.300781 -3.410156 4.046875 -3.054688 3.765625 -2.765625 C 3.484375 -2.484375 3.128906 -2.226562 2.703125 -2 L 2 -1.625 L 10.46875 -1.625 C 10.78125 -1.625 11.023438 -1.6875 11.203125 -1.8125 C 11.378906 -1.9375 11.570312 -2.125 11.78125 -2.375 L 11.9375 -2.28125 C 11.601562 -1.820312 11.328125 -1.421875 11.109375 -1.078125 C 10.890625 -0.742188 10.664062 -0.476562 10.4375 -0.28125 C 10.300781 -0.164062 10.144531 -0.0859375 9.96875 -0.046875 C 9.800781 -0.015625 9.648438 0 9.515625 0 Z M 0 0 "/></g></g></g><g fill="#271b4c" fill-opacity="1"><g transform="translate(83.243258, 19.026109)"><g><path d="M -0.359375 0 C -0.472656 0 -0.539062 -0.015625 -0.5625 -0.046875 C -0.59375 -0.078125 -0.609375 -0.125 -0.609375 -0.1875 C -0.609375 -0.25 -0.523438 -0.351562 -0.359375 -0.5 C -0.203125 -0.65625 -0.0234375 -0.820312 0.171875 -1 C 0.378906 -1.1875 0.546875 -1.332031 0.671875 -1.4375 L 8.609375 -7.828125 C 9.742188 -8.703125 10.84375 -9.582031 11.90625 -10.46875 C 12.976562 -11.363281 14.007812 -12.269531 15 -13.1875 L 6.828125 -13.1875 C 6.503906 -13.1875 6.253906 -13.125 6.078125 -13 C 5.910156 -12.875 5.722656 -12.6875 5.515625 -12.4375 L 5.34375 -12.53125 C 5.675781 -13 5.953125 -13.398438 6.171875 -13.734375 C 6.398438 -14.066406 6.625 -14.332031 6.84375 -14.53125 C 6.976562 -14.644531 7.132812 -14.71875 7.3125 -14.75 C 7.488281 -14.789062 7.644531 -14.8125 7.78125 -14.8125 L 17.578125 -14.8125 C 17.671875 -14.800781 17.726562 -14.78125 17.75 -14.75 C 17.769531 -14.726562 17.78125 -14.6875 17.78125 -14.625 C 17.78125 -14.5 17.65625 -14.328125 17.40625 -14.109375 C 17.15625 -13.898438 16.835938 -13.65625 16.453125 -13.375 C 15.492188 -12.675781 14.347656 -11.828125 13.015625 -10.828125 C 11.691406 -9.835938 10.265625 -8.734375 8.734375 -7.515625 C 7.304688 -6.378906 6.019531 -5.304688 4.875 -4.296875 C 3.738281 -3.296875 2.785156 -2.410156 2.015625 -1.640625 L 10.625 -1.625 C 10.945312 -1.625 11.191406 -1.6875 11.359375 -1.8125 C 11.535156 -1.9375 11.726562 -2.125 11.9375 -2.375 L 12.109375 -2.28125 C 11.773438 -1.820312 11.492188 -1.421875 11.265625 -1.078125 C 11.046875 -0.742188 10.828125 -0.476562 10.609375 -0.28125 C 10.472656 -0.164062 10.316406 -0.0859375 10.140625 -0.046875 C 9.972656 -0.015625 9.820312 0 9.6875 0 Z M -0.359375 0 "/></g></g></g><g fill="#271b4c" fill-opacity="1"><g transform="translate(96.398167, 19.026109)"><g><path d="M -2.5 0.140625 C -2.644531 0.140625 -2.820312 0.132812 -3.03125 0.125 C -3.238281 0.113281 -3.425781 0.0820312 -3.59375 0.03125 C -3.757812 -0.0078125 -3.84375 -0.0859375 -3.84375 -0.203125 C -3.84375 -0.390625 -3.78125 -0.566406 -3.65625 -0.734375 C -3.53125 -0.910156 -3.367188 -1.054688 -3.171875 -1.171875 C -2.984375 -1.296875 -2.796875 -1.359375 -2.609375 -1.359375 C -2.273438 -1.359375 -1.851562 -1.300781 -1.34375 -1.1875 C -0.832031 -1.070312 -0.257812 -0.96875 0.375 -0.875 C 0.75 -1.007812 1.082031 -1.234375 1.375 -1.546875 C 1.664062 -1.859375 1.984375 -2.320312 2.328125 -2.9375 C 2.890625 -3.9375 3.367188 -4.863281 3.765625 -5.71875 C 4.171875 -6.570312 4.570312 -7.414062 4.96875 -8.25 C 5.375 -9.09375 5.847656 -9.988281 6.390625 -10.9375 C 6.546875 -11.226562 6.710938 -11.492188 6.890625 -11.734375 C 7.078125 -11.972656 7.3125 -12.195312 7.59375 -12.40625 C 7.875 -12.613281 8.25 -12.816406 8.71875 -13.015625 L 9.640625 -13.40625 L 9.625 -13.40625 L 4.34375 -13.296875 C 4.03125 -13.296875 3.785156 -13.234375 3.609375 -13.109375 C 3.429688 -12.984375 3.238281 -12.796875 3.03125 -12.546875 L 2.875 -12.640625 C 3.207031 -13.109375 3.484375 -13.488281 3.703125 -13.78125 C 3.921875 -14.082031 4.144531 -14.332031 4.375 -14.53125 C 4.507812 -14.644531 4.660156 -14.71875 4.828125 -14.75 C 5.003906 -14.789062 5.160156 -14.8125 5.296875 -14.8125 L 11.390625 -14.8125 C 11.484375 -14.8125 11.539062 -14.789062 11.5625 -14.75 C 11.582031 -14.71875 11.59375 -14.679688 11.59375 -14.640625 C 11.59375 -14.597656 11.503906 -14.484375 11.328125 -14.296875 C 11.160156 -14.117188 10.960938 -13.9375 10.734375 -13.75 C 10.515625 -13.570312 10.332031 -13.445312 10.1875 -13.375 C 9.757812 -13.175781 9.425781 -12.898438 9.1875 -12.546875 C 8.957031 -12.203125 8.738281 -11.851562 8.53125 -11.5 C 7.96875 -10.507812 7.488281 -9.59375 7.09375 -8.75 C 6.695312 -7.90625 6.300781 -7.050781 5.90625 -6.1875 C 6.632812 -6.84375 7.367188 -7.484375 8.109375 -8.109375 C 8.859375 -8.734375 9.570312 -9.328125 10.25 -9.890625 C 10.9375 -10.453125 11.554688 -10.945312 12.109375 -11.375 C 12.660156 -11.8125 13.109375 -12.160156 13.453125 -12.421875 C 14.546875 -13.191406 15.578125 -13.804688 16.546875 -14.265625 C 17.515625 -14.722656 18.398438 -14.953125 19.203125 -14.953125 C 19.316406 -14.953125 19.460938 -14.945312 19.640625 -14.9375 C 19.816406 -14.925781 19.972656 -14.894531 20.109375 -14.84375 C 20.253906 -14.800781 20.328125 -14.722656 20.328125 -14.609375 C 20.328125 -14.429688 20.253906 -14.25 20.109375 -14.0625 C 19.972656 -13.875 19.789062 -13.710938 19.5625 -13.578125 C 19.34375 -13.453125 19.117188 -13.390625 18.890625 -13.390625 C 18.367188 -13.390625 17.570312 -13.550781 16.5 -13.875 C 16.226562 -13.757812 15.914062 -13.601562 15.5625 -13.40625 C 15.207031 -13.207031 14.859375 -12.992188 14.515625 -12.765625 C 14.179688 -12.546875 13.890625 -12.347656 13.640625 -12.171875 C 13.265625 -11.890625 12.757812 -11.492188 12.125 -10.984375 C 11.5 -10.484375 10.800781 -9.921875 10.03125 -9.296875 C 10.164062 -8.097656 10.328125 -6.988281 10.515625 -5.96875 C 10.703125 -4.945312 10.90625 -4.054688 11.125 -3.296875 C 11.351562 -2.546875 11.597656 -1.957031 11.859375 -1.53125 C 12.117188 -1.113281 12.394531 -0.90625 12.6875 -0.90625 C 13.101562 -0.90625 13.6875 -1.332031 14.4375 -2.1875 L 14.609375 -2.015625 C 13.878906 -1.242188 13.257812 -0.691406 12.75 -0.359375 C 12.25 -0.0234375 11.859375 0.140625 11.578125 0.140625 C 11.285156 0.140625 11.003906 0.00390625 10.734375 -0.265625 C 10.460938 -0.546875 10.203125 -1 9.953125 -1.625 C 9.703125 -2.257812 9.46875 -3.109375 9.25 -4.171875 C 9.03125 -5.242188 8.835938 -6.566406 8.671875 -8.140625 C 8.148438 -7.703125 7.617188 -7.25 7.078125 -6.78125 C 6.546875 -6.320312 6.019531 -5.859375 5.5 -5.390625 C 5.394531 -5.171875 5.285156 -4.945312 5.171875 -4.71875 C 5.054688 -4.488281 4.929688 -4.253906 4.796875 -4.015625 C 4.472656 -3.429688 4.015625 -2.882812 3.421875 -2.375 C 2.828125 -1.875 2.175781 -1.4375 1.46875 -1.0625 C 0.757812 -0.6875 0.0546875 -0.390625 -0.640625 -0.171875 C -1.335938 0.0351562 -1.957031 0.140625 -2.5 0.140625 Z M -2.5 0.140625 "/></g></g></g><g fill="#271b4c" fill-opacity="1"><g transform="translate(111.865826, 19.026109)"><g><path d="M 7.8125 0.203125 C 7.46875 0.203125 7.003906 0.195312 6.421875 0.1875 C 5.835938 0.1875 5.234375 0.179688 4.609375 0.171875 L -0.703125 0 C -0.828125 0 -0.898438 -0.015625 -0.921875 -0.046875 C -0.953125 -0.078125 -0.96875 -0.125 -0.96875 -0.1875 C -0.96875 -0.238281 -0.894531 -0.332031 -0.75 -0.46875 C -0.601562 -0.601562 -0.421875 -0.753906 -0.203125 -0.921875 C 0.00390625 -1.097656 0.207031 -1.265625 0.40625 -1.421875 C 0.476562 -1.484375 0.550781 -1.523438 0.625 -1.546875 C 0.695312 -1.566406 0.78125 -1.578125 0.875 -1.578125 L 1.828125 -1.53125 C 2.347656 -1.925781 2.757812 -2.421875 3.0625 -3.015625 C 3.375 -3.617188 3.644531 -4.3125 3.875 -5.09375 C 4.101562 -5.875 4.34375 -6.734375 4.59375 -7.671875 C 4.851562 -8.609375 5.1875 -9.609375 5.59375 -10.671875 C 5.894531 -11.472656 6.316406 -12.144531 6.859375 -12.6875 C 7.410156 -13.238281 8.019531 -13.675781 8.6875 -14 C 9.351562 -14.332031 10.039062 -14.570312 10.75 -14.71875 C 11.46875 -14.863281 12.148438 -14.9375 12.796875 -14.9375 C 13.804688 -14.9375 14.601562 -14.84375 15.1875 -14.65625 C 15.78125 -14.46875 16.078125 -14.285156 16.078125 -14.109375 C 16.078125 -13.929688 16.003906 -13.75 15.859375 -13.5625 C 15.710938 -13.375 15.535156 -13.210938 15.328125 -13.078125 C 15.128906 -12.953125 14.929688 -12.890625 14.734375 -12.890625 C 14.191406 -12.890625 13.609375 -13.035156 12.984375 -13.328125 C 12.359375 -13.628906 11.613281 -13.984375 10.75 -14.390625 C 10.519531 -14.335938 10.285156 -14.253906 10.046875 -14.140625 C 9.804688 -14.035156 9.554688 -13.832031 9.296875 -13.53125 C 9.035156 -13.238281 8.753906 -12.804688 8.453125 -12.234375 C 8.148438 -11.660156 7.820312 -10.890625 7.46875 -9.921875 C 7.28125 -9.441406 7.078125 -8.921875 6.859375 -8.359375 C 6.648438 -7.796875 6.425781 -7.238281 6.1875 -6.6875 C 5.957031 -6.144531 5.726562 -5.632812 5.5 -5.15625 C 5.28125 -4.675781 5.054688 -4.285156 4.828125 -3.984375 C 4.566406 -3.609375 4.316406 -3.285156 4.078125 -3.015625 C 3.835938 -2.742188 3.578125 -2.488281 3.296875 -2.25 C 3.023438 -2.019531 2.691406 -1.78125 2.296875 -1.53125 L 5.171875 -1.4375 C 5.796875 -1.425781 6.394531 -1.414062 6.96875 -1.40625 C 7.550781 -1.394531 8.019531 -1.390625 8.375 -1.390625 C 9.082031 -1.390625 9.632812 -1.441406 10.03125 -1.546875 C 10.425781 -1.648438 10.738281 -1.78125 10.96875 -1.9375 C 11.195312 -2.101562 11.410156 -2.265625 11.609375 -2.421875 L 11.75 -2.28125 C 11.34375 -1.78125 11.015625 -1.367188 10.765625 -1.046875 C 10.523438 -0.734375 10.296875 -0.476562 10.078125 -0.28125 C 9.984375 -0.21875 9.863281 -0.144531 9.71875 -0.0625 C 9.570312 0.0195312 9.347656 0.0820312 9.046875 0.125 C 8.753906 0.175781 8.34375 0.203125 7.8125 0.203125 Z M 7.8125 0.203125 "/></g></g></g><path stroke-linecap="butt" transform="matrix(0.738281, 0, 0, 0.738281, 42.539879, 15.249192)" fill="none" stroke-linejoin="miter" d="M 32.559743 7.334428 C 32.28461 6.60956 32.004187 6.08046 31.723764 5.747126 C 31.43805 5.413793 31.173499 5.18628 30.930113 5.069878 L 30.930113 4.76829 L 34.930113 4.76829 L 34.930113 5.069878 C 34.570325 5.18628 34.432759 5.413793 34.517415 5.747126 C 34.607362 6.08046 34.787256 6.60956 35.062388 7.334428 L 39.06768 17.49845 L 43.004188 7.334428 C 43.295193 6.60956 43.406304 6.069878 43.342812 5.725962 C 43.27932 5.376756 43.057098 5.159825 42.676145 5.069878 L 42.676145 4.76829 L 45.205246 4.76829 L 45.205246 5.069878 C 44.882495 5.18628 44.575616 5.413793 44.284611 5.747126 C 43.998897 6.08046 43.713182 6.60956 43.422177 7.334428 L 38.501542 20.001095 L 37.670854 20.001095 Z M 46.136463 20.001095 L 46.136463 19.699508 C 46.496251 19.577815 46.729056 19.33972 46.834876 18.969349 C 46.945987 18.598979 46.998897 18.022259 46.998897 17.23919 L 46.998897 7.530195 C 46.998897 6.747126 46.945987 6.175698 46.834876 5.805327 C 46.729056 5.434957 46.496251 5.18628 46.136463 5.069878 L 46.136463 4.76829 L 50.178791 4.76829 L 50.178791 5.069878 C 49.819003 5.18628 49.580908 5.434957 49.469797 5.805327 C 49.363976 6.175698 49.311066 6.747126 49.311066 7.530195 L 49.311066 17.23919 C 49.311066 18.022259 49.363976 18.598979 49.469797 18.969349 C 49.580908 19.33972 49.819003 19.577815 50.178791 19.699508 L 50.178791 20.001095 Z M 63.295194 20.154535 C 62.702601 20.154535 62.226411 20.016968 61.871914 19.752418 C 61.517416 19.482577 61.205247 19.069878 60.935406 18.524905 C 60.670855 17.969349 60.358686 17.270936 60.014771 16.429667 C 59.692019 15.630725 59.427469 14.964058 59.205247 14.424375 C 58.988316 13.874111 58.776675 13.440248 58.575617 13.117497 C 58.369268 12.784164 58.125882 12.55136 57.834876 12.408502 C 57.543871 12.265645 57.157628 12.191571 56.681437 12.191571 L 55.401014 12.191571 L 55.401014 17.23919 C 55.401014 18.022259 55.453924 18.598979 55.559744 18.969349 C 55.670855 19.33972 55.90895 19.577815 56.268739 19.699508 L 56.268739 20.001095 L 52.22641 20.001095 L 52.22641 19.699508 C 52.586199 19.577815 52.819003 19.33972 52.924823 18.969349 C 53.035934 18.598979 53.088844 18.022259 53.088844 17.23919 L 53.088844 7.530195 C 53.088844 6.747126 53.035934 6.175698 52.924823 5.805327 C 52.819003 5.434957 52.586199 5.18628 52.22641 5.069878 L 52.22641 4.76829 L 56.792548 4.76829 C 57.983025 4.76829 58.951279 4.868819 59.692019 5.059296 C 60.443342 5.255063 61.020062 5.519613 61.427469 5.847655 C 61.834877 6.175698 62.1153 6.546068 62.27403 6.969349 C 62.438051 7.387338 62.517416 7.810619 62.517416 8.249772 C 62.517416 9.249772 62.16821 10.101624 61.469797 10.800037 C 60.776675 11.493158 59.702601 11.927021 58.247575 12.101624 C 58.85604 12.175698 59.363977 12.297391 59.755511 12.471994 C 60.157628 12.646598 60.501543 12.895275 60.781966 13.223317 C 61.067681 13.546069 61.321649 13.964058 61.554453 14.466704 C 61.787258 14.964058 62.051808 15.577815 62.337522 16.302682 C 62.734348 17.260354 63.035935 17.985222 63.252866 18.482577 C 63.475088 18.97464 63.676147 19.302683 63.866623 19.466704 C 64.051808 19.636016 64.279321 19.720672 64.53858 19.720672 C 64.596781 19.720672 64.649692 19.720672 64.697311 19.720672 C 64.750221 19.720672 64.808422 19.71009 64.861332 19.699508 L 64.861332 20.001095 C 64.617945 20.059296 64.342813 20.096333 64.041226 20.117497 C 63.734348 20.143953 63.48567 20.154535 63.295194 20.154535 Z M 55.401014 11.842365 L 56.792548 11.842365 C 57.617945 11.842365 58.279321 11.699508 58.781966 11.424375 C 59.284612 11.149243 59.6444 10.773582 59.871914 10.302682 C 60.094136 9.831783 60.210538 9.323846 60.210538 8.768291 C 60.210538 8.175698 60.078263 7.604269 59.819003 7.043423 C 59.554453 6.482576 59.141755 6.022259 58.575617 5.66247 C 58.00948 5.297391 57.27403 5.112206 56.358686 5.112206 C 56.051807 5.112206 55.734347 5.138661 55.401014 5.180989 Z M 68.734348 20.001095 L 68.734348 19.699508 C 69.094136 19.577815 69.32694 19.33972 69.438052 18.969349 C 69.549163 18.598979 69.602073 18.022259 69.602073 17.23919 L 69.602073 5.159825 L 68.930115 5.159825 C 67.95657 5.159825 67.189374 5.323846 66.63911 5.651888 C 66.088845 5.97464 65.612655 6.577814 65.205247 7.445539 L 64.945988 7.39792 L 65.078263 4.76829 L 76.411597 4.76829 L 76.543872 7.39792 L 76.279322 7.445539 C 75.877205 6.577814 75.401015 5.97464 74.845459 5.651888 C 74.295195 5.323846 73.53329 5.159825 72.559745 5.159825 L 71.930115 5.159825 L 71.930115 17.23919 C 71.930115 18.022259 71.983025 18.598979 72.094136 18.969349 C 72.205247 19.33972 72.438052 19.577815 72.803131 19.699508 L 72.803131 20.001095 Z M 84.850751 20.218027 C 84.067682 20.218027 83.295195 20.117497 82.543872 19.916439 C 81.787259 19.71009 81.104719 19.371466 80.496253 18.900566 C 79.887788 18.429667 79.401015 17.800037 79.035936 17.022259 C 78.676147 16.23919 78.496253 15.255063 78.496253 14.08046 L 78.496253 7.530195 C 78.496253 6.747126 78.438052 6.175698 78.332232 5.805327 C 78.221121 5.434957 77.988317 5.18628 77.628528 5.069878 L 77.628528 4.76829 L 81.670856 4.76829 L 81.670856 5.069878 C 81.311068 5.18628 81.072973 5.434957 80.967153 5.805327 C 80.856042 6.175698 80.803132 6.747126 80.803132 7.530195 L 80.803132 14.255063 C 80.803132 15.572524 81.009481 16.636016 81.411597 17.434958 C 81.819005 18.228609 82.390433 18.810619 83.131174 19.165116 C 83.871915 19.519614 84.734349 19.699508 85.718476 19.699508 C 86.184084 19.699508 86.660275 19.60427 87.141756 19.413794 C 87.63382 19.223318 88.083555 18.916439 88.501545 18.487868 C 88.924825 18.059296 89.26874 17.487868 89.528 16.778873 C 89.79255 16.069878 89.919534 15.180989 89.919534 14.122788 L 89.919534 8.837074 C 89.919534 7.953476 89.861333 7.255063 89.744931 6.752417 C 89.628529 6.23919 89.448635 5.863528 89.199957 5.620142 C 88.956571 5.371465 88.644402 5.18628 88.263449 5.069878 L 88.263449 4.76829 L 91.178793 4.76829 L 91.178793 5.069878 C 90.819005 5.18628 90.586201 5.434957 90.47509 5.805327 C 90.36927 6.175698 90.31636 6.747126 90.31636 7.530195 L 90.31636 14.08046 C 90.31636 15.530196 90.078264 16.71009 89.602074 17.614852 C 89.131174 18.519614 88.485672 19.18099 87.665566 19.593688 C 86.84546 20.011677 85.908952 20.218027 84.850751 20.218027 Z M 91.305778 20.001095 L 91.305778 19.699508 C 91.639111 19.577815 91.956571 19.355593 92.252868 19.022259 C 92.549164 18.683635 92.84546 18.154534 93.136466 17.434958 L 97.205249 7.334428 C 97.363979 6.927021 97.348106 6.535486 97.162921 6.159825 L 96.877206 5.551359 L 99.009482 4.593687 L 104.406307 17.456122 C 104.713186 18.165116 105.004191 18.683635 105.289905 19.022259 C 105.570329 19.355593 105.834879 19.577815 106.078265 19.699508 L 106.078265 20.001095 L 102.120593 20.001095 L 102.120593 19.699508 C 102.485672 19.577815 102.617947 19.355593 102.522709 19.022259 C 102.427471 18.683635 102.231704 18.165116 101.924826 17.456122 L 100.617947 14.318555 L 94.808423 14.318555 L 93.549164 17.434958 C 93.258159 18.154534 93.141757 18.694217 93.199958 19.043423 C 93.258159 19.39263 93.469799 19.609561 93.829587 19.699508 L 93.829587 20.001095 Z M 94.940698 13.969349 L 100.464508 13.969349 L 97.660275 7.249772 Z M 106.771387 20.001095 L 106.771387 19.699508 C 107.136466 19.577815 107.36927 19.33972 107.475091 18.969349 C 107.586202 18.598979 107.639112 18.022259 107.639112 17.23919 L 107.639112 7.530195 C 107.639112 6.747126 107.586202 6.175698 107.475091 5.805327 C 107.36927 5.434957 107.136466 5.18628 106.771387 5.069878 L 106.771387 4.76829 L 110.819006 4.76829 L 110.819006 5.069878 C 110.453927 5.18628 110.221122 5.434957 110.110011 5.805327 C 110.004191 6.175698 109.951281 6.747126 109.951281 7.530195 L 109.951281 18.519614 C 109.951281 19.244482 110.31107 19.60427 111.035937 19.60427 L 112.819006 19.60427 C 113.919535 19.60427 114.78726 19.440249 115.41689 19.106915 C 116.051811 18.773582 116.586202 18.143952 117.020065 17.218026 L 117.305779 17.260354 L 117.125885 20.001095 Z M 106.771387 20.001095 " stroke="#343434" stroke-width="0.680128" stroke-opacity="1" stroke-miterlimit="4"/><g fill="#271b4c" fill-opacity="1"><g transform="translate(65.438132, 30.014816)"><g><path d="M 1.140625 -9.34375 C 0.929688 -9.882812 0.722656 -10.273438 0.515625 -10.515625 C 0.304688 -10.765625 0.113281 -10.929688 -0.0625 -11.015625 L -0.0625 -11.25 L 2.890625 -11.25 L 2.890625 -11.015625 C 2.617188 -10.929688 2.515625 -10.765625 2.578125 -10.515625 C 2.648438 -10.273438 2.785156 -9.882812 2.984375 -9.34375 L 5.9375 -1.84375 L 8.84375 -9.34375 C 9.0625 -9.882812 9.144531 -10.28125 9.09375 -10.53125 C 9.050781 -10.789062 8.890625 -10.953125 8.609375 -11.015625 L 8.609375 -11.25 L 10.46875 -11.25 L 10.46875 -11.015625 C 10.238281 -10.929688 10.015625 -10.765625 9.796875 -10.515625 C 9.585938 -10.273438 9.375 -9.882812 9.15625 -9.34375 L 5.53125 0 L 4.921875 0 Z M 1.140625 -9.34375 "/></g></g></g><g fill="#271b4c" fill-opacity="1"><g transform="translate(75.843452, 30.014816)"><g><path d="M 0.75 0 L 0.75 -0.21875 C 1.019531 -0.3125 1.191406 -0.492188 1.265625 -0.765625 C 1.347656 -1.035156 1.390625 -1.460938 1.390625 -2.046875 L 1.390625 -9.203125 C 1.390625 -9.785156 1.347656 -10.210938 1.265625 -10.484375 C 1.191406 -10.753906 1.019531 -10.929688 0.75 -11.015625 L 0.75 -11.25 L 3.75 -11.25 L 3.75 -11.015625 C 3.476562 -10.929688 3.300781 -10.753906 3.21875 -10.484375 C 3.132812 -10.210938 3.09375 -9.785156 3.09375 -9.203125 L 3.09375 -2.046875 C 3.09375 -1.460938 3.132812 -1.035156 3.21875 -0.765625 C 3.300781 -0.492188 3.476562 -0.3125 3.75 -0.21875 L 3.75 0 Z M 0.75 0 "/></g></g></g><g fill="#271b4c" fill-opacity="1"><g transform="translate(80.339582, 30.014816)"><g><path d="M 8.9375 0.109375 C 8.488281 0.109375 8.132812 0.0078125 7.875 -0.1875 C 7.613281 -0.382812 7.382812 -0.6875 7.1875 -1.09375 C 6.988281 -1.5 6.757812 -2.015625 6.5 -2.640625 C 6.269531 -3.222656 6.070312 -3.710938 5.90625 -4.109375 C 5.75 -4.515625 5.59375 -4.835938 5.4375 -5.078125 C 5.289062 -5.316406 5.109375 -5.488281 4.890625 -5.59375 C 4.679688 -5.707031 4.398438 -5.765625 4.046875 -5.765625 L 3.09375 -5.765625 L 3.09375 -2.046875 C 3.09375 -1.460938 3.132812 -1.035156 3.21875 -0.765625 C 3.300781 -0.492188 3.476562 -0.3125 3.75 -0.21875 L 3.75 0 L 0.75 0 L 0.75 -0.21875 C 1.019531 -0.3125 1.191406 -0.492188 1.265625 -0.765625 C 1.347656 -1.035156 1.390625 -1.460938 1.390625 -2.046875 L 1.390625 -9.203125 C 1.390625 -9.785156 1.347656 -10.210938 1.265625 -10.484375 C 1.191406 -10.753906 1.019531 -10.929688 0.75 -11.015625 L 0.75 -11.25 L 4.125 -11.25 C 5 -11.25 5.710938 -11.175781 6.265625 -11.03125 C 6.816406 -10.882812 7.242188 -10.691406 7.546875 -10.453125 C 7.847656 -10.210938 8.054688 -9.9375 8.171875 -9.625 C 8.296875 -9.3125 8.359375 -8.992188 8.359375 -8.671875 C 8.359375 -7.929688 8.097656 -7.300781 7.578125 -6.78125 C 7.066406 -6.269531 6.273438 -5.953125 5.203125 -5.828125 C 5.648438 -5.773438 6.019531 -5.679688 6.3125 -5.546875 C 6.613281 -5.421875 6.867188 -5.238281 7.078125 -5 C 7.285156 -4.757812 7.472656 -4.453125 7.640625 -4.078125 C 7.816406 -3.710938 8.007812 -3.265625 8.21875 -2.734375 C 8.507812 -2.023438 8.734375 -1.488281 8.890625 -1.125 C 9.054688 -0.757812 9.207031 -0.515625 9.34375 -0.390625 C 9.488281 -0.265625 9.65625 -0.203125 9.84375 -0.203125 C 9.882812 -0.203125 9.921875 -0.203125 9.953125 -0.203125 C 9.992188 -0.203125 10.039062 -0.207031 10.09375 -0.21875 L 10.09375 0 C 9.90625 0.0390625 9.695312 0.0664062 9.46875 0.078125 C 9.25 0.0976562 9.070312 0.109375 8.9375 0.109375 Z M 3.09375 -6.015625 L 4.125 -6.015625 C 4.738281 -6.015625 5.226562 -6.117188 5.59375 -6.328125 C 5.96875 -6.535156 6.238281 -6.8125 6.40625 -7.15625 C 6.570312 -7.5 6.65625 -7.875 6.65625 -8.28125 C 6.65625 -8.726562 6.554688 -9.15625 6.359375 -9.5625 C 6.171875 -9.976562 5.863281 -10.316406 5.4375 -10.578125 C 5.019531 -10.847656 4.476562 -10.984375 3.8125 -10.984375 C 3.582031 -10.984375 3.34375 -10.96875 3.09375 -10.9375 Z M 3.09375 -6.015625 "/></g></g></g><g fill="#271b4c" fill-opacity="1"><g transform="translate(90.263176, 30.014816)"><g><path d="M 3.015625 0 L 3.015625 -0.21875 C 3.285156 -0.3125 3.457031 -0.492188 3.53125 -0.765625 C 3.613281 -1.035156 3.65625 -1.460938 3.65625 -2.046875 L 3.65625 -10.953125 L 3.171875 -10.953125 C 2.453125 -10.953125 1.890625 -10.832031 1.484375 -10.59375 C 1.078125 -10.351562 0.722656 -9.910156 0.421875 -9.265625 L 0.21875 -9.296875 L 0.328125 -11.25 L 8.6875 -11.25 L 8.78125 -9.296875 L 8.59375 -9.265625 C 8.289062 -9.910156 7.9375 -10.351562 7.53125 -10.59375 C 7.125 -10.832031 6.5625 -10.953125 5.84375 -10.953125 L 5.375 -10.953125 L 5.375 -2.046875 C 5.375 -1.460938 5.414062 -1.035156 5.5 -0.765625 C 5.582031 -0.492188 5.753906 -0.3125 6.015625 -0.21875 L 6.015625 0 Z M 3.015625 0 "/></g></g></g><g fill="#271b4c" fill-opacity="1"><g transform="translate(99.255435, 30.014816)"><g><path d="M 5.921875 0.15625 C 5.347656 0.15625 4.78125 0.0820312 4.21875 -0.0625 C 3.664062 -0.21875 3.164062 -0.46875 2.71875 -0.8125 C 2.269531 -1.15625 1.910156 -1.613281 1.640625 -2.1875 C 1.367188 -2.769531 1.234375 -3.5 1.234375 -4.375 L 1.234375 -9.203125 C 1.234375 -9.785156 1.191406 -10.210938 1.109375 -10.484375 C 1.035156 -10.753906 0.863281 -10.929688 0.59375 -11.015625 L 0.59375 -11.25 L 3.578125 -11.25 L 3.578125 -11.015625 C 3.316406 -10.929688 3.144531 -10.753906 3.0625 -10.484375 C 2.976562 -10.210938 2.9375 -9.785156 2.9375 -9.203125 L 2.9375 -4.234375 C 2.9375 -3.265625 3.085938 -2.484375 3.390625 -1.890625 C 3.691406 -1.304688 4.113281 -0.878906 4.65625 -0.609375 C 5.207031 -0.347656 5.84375 -0.21875 6.5625 -0.21875 C 6.90625 -0.21875 7.253906 -0.285156 7.609375 -0.421875 C 7.972656 -0.566406 8.3125 -0.796875 8.625 -1.109375 C 8.9375 -1.429688 9.1875 -1.851562 9.375 -2.375 C 9.570312 -2.90625 9.671875 -3.5625 9.671875 -4.34375 L 9.671875 -8.234375 C 9.671875 -8.890625 9.625 -9.40625 9.53125 -9.78125 C 9.445312 -10.15625 9.3125 -10.429688 9.125 -10.609375 C 8.945312 -10.796875 8.722656 -10.929688 8.453125 -11.015625 L 8.453125 -11.25 L 10.59375 -11.25 L 10.59375 -11.015625 C 10.332031 -10.929688 10.160156 -10.753906 10.078125 -10.484375 C 9.992188 -10.210938 9.953125 -9.785156 9.953125 -9.203125 L 9.953125 -4.375 C 9.953125 -3.300781 9.78125 -2.425781 9.4375 -1.75 C 9.09375 -1.082031 8.613281 -0.597656 8 -0.296875 C 7.394531 0.00390625 6.703125 0.15625 5.921875 0.15625 Z M 5.921875 0.15625 "/></g></g></g><g fill="#271b4c" fill-opacity="1"><g transform="translate(110.287003, 30.014816)"><g><path d="M -0.34375 0 L -0.34375 -0.21875 C -0.09375 -0.3125 0.140625 -0.476562 0.359375 -0.71875 C 0.578125 -0.96875 0.796875 -1.359375 1.015625 -1.890625 L 4.015625 -9.34375 C 4.128906 -9.644531 4.117188 -9.9375 3.984375 -10.21875 L 3.78125 -10.671875 L 5.34375 -11.375 L 9.328125 -1.875 C 9.554688 -1.351562 9.773438 -0.96875 9.984375 -0.71875 C 10.191406 -0.476562 10.382812 -0.3125 10.5625 -0.21875 L 10.5625 0 L 7.640625 0 L 7.640625 -0.21875 C 7.910156 -0.3125 8.007812 -0.476562 7.9375 -0.71875 C 7.875 -0.96875 7.726562 -1.351562 7.5 -1.875 L 6.53125 -4.1875 L 2.25 -4.1875 L 1.3125 -1.890625 C 1.101562 -1.359375 1.019531 -0.960938 1.0625 -0.703125 C 1.101562 -0.453125 1.257812 -0.289062 1.53125 -0.21875 L 1.53125 0 Z M 2.34375 -4.453125 L 6.421875 -4.453125 L 4.359375 -9.40625 Z M 2.34375 -4.453125 "/></g></g></g><g fill="#271b4c" fill-opacity="1"><g transform="translate(120.612035, 30.014816)"><g><path d="M 0.75 0 L 0.75 -0.21875 C 1.019531 -0.3125 1.191406 -0.492188 1.265625 -0.765625 C 1.347656 -1.035156 1.390625 -1.460938 1.390625 -2.046875 L 1.390625 -9.203125 C 1.390625 -9.785156 1.347656 -10.210938 1.265625 -10.484375 C 1.191406 -10.753906 1.019531 -10.929688 0.75 -11.015625 L 0.75 -11.25 L 3.75 -11.25 L 3.75 -11.015625 C 3.476562 -10.929688 3.300781 -10.753906 3.21875 -10.484375 C 3.132812 -10.210938 3.09375 -9.785156 3.09375 -9.203125 L 3.09375 -1.09375 C 3.09375 -0.5625 3.363281 -0.296875 3.90625 -0.296875 L 5.21875 -0.296875 C 6.03125 -0.296875 6.671875 -0.414062 7.140625 -0.65625 C 7.609375 -0.90625 8.003906 -1.375 8.328125 -2.0625 L 8.53125 -2.03125 L 8.40625 0 Z M 0.75 0 "/></g></g></g></svg>